<?xml version="1.0"?>
<svg width="390" height="108" xmlns="http://www.w3.org/2000/svg" xmlns:svg="http://www.w3.org/2000/svg" preserveAspectRatio="xMidYMid meet" version="1.0">
 <g class="layer">
  <title>Layer 1</title>
  <g fill="#000000" id="svg_1" transform="matrix(0.1 0 0 -0.1 0 0)">
   <path d="m187,-228c-15,-17 -17,-48 -17,-303c0,-273 1,-286 20,-307c12,-12 24,-22 28,-22c4,0 39,18 77,41c39,22 157,90 263,151c165,94 192,114 192,134c0,17 -11,31 -37,48c-94,59 -469,270 -488,273c-12,3 -28,-4 -38,-15z" fill="#ff0000" id="svg_2"/>
   <path d="m1453,-235c-18,-8 -42,-29 -53,-47c-18,-30 -20,-50 -20,-246c0,-233 6,-266 56,-299c40,-26 134,-24 171,3c54,40 58,60 58,294c0,191 -2,219 -18,243c-40,61 -123,83 -194,52zm105,-87c9,-9 12,-69 12,-209c0,-210 -4,-229 -50,-229c-46,0 -50,20 -50,221c0,112 4,198 10,210c12,22 59,26 78,7z" fill="#ff0000" id="svg_3"/>
   <path d="m3212,-237c-45,-22 -66,-66 -66,-133c1,-71 26,-119 99,-190c31,-30 63,-67 71,-82c28,-54 10,-118 -35,-118c-27,0 -51,33 -51,68c0,31 -1,32 -45,32c-45,0 -45,0 -45,-35c0,-49 27,-111 58,-132c18,-11 46,-17 84,-17c95,-1 142,50 141,154c-1,72 -25,119 -98,190c-64,62 -85,96 -85,138c0,34 16,52 46,52c27,0 42,-18 50,-58c6,-29 10,-32 45,-32c39,0 39,0 39,41c0,23 -7,56 -16,74c-28,60 -121,83 -192,48z" fill="#ff0000" id="svg_4"/>
   <path d="m915,-243c-3,-7 -4,-143 -3,-302l3,-290l40,0l40,0l5,200c3,110 7,197 8,193c1,-4 13,-83 27,-175c36,-242 30,-223 76,-223c24,0 39,5 39,13c1,31 58,378 63,384c4,3 7,-84 7,-195l0,-202l45,0l45,0l0,305l0,306l-67,-3l-68,-3l-16,-110c-9,-60 -22,-150 -29,-198c-7,-49 -16,-85 -20,-80c-4,4 -18,80 -29,168c-12,88 -24,175 -28,193l-5,32l-64,0c-43,0 -66,-4 -69,-13z" fill="#ff0000" id="svg_5"/>
   <path d="m1710,-243c0,-17 78,-543 85,-575c5,-21 10,-23 68,-20l61,3l43,275c53,350 53,330 4,330c-45,0 -39,19 -71,-225c-23,-180 -30,-219 -37,-212c-2,3 -15,88 -29,189c-36,275 -27,248 -79,248c-31,0 -45,-4 -45,-13z" fill="#ff0000" id="svg_6"/>
   <path d="m2070,-535l0,-305l45,0l45,0l0,305l0,305l-45,0l-45,0l0,-305z" fill="#ff0000" id="svg_7"/>
   <path d="m2235,-243c-3,-7 -4,-143 -3,-302l3,-290l128,-3l127,-3l0,46l0,45l-80,0l-81,0l3,93l3,92l63,3l62,3l0,39l0,40l-65,0l-66,0l3,83l3,82l78,3l77,3l0,39l0,40l-125,0c-92,0 -127,-3 -130,-13z" fill="#ff0000" id="svg_8"/>
   <path d="m2690,-535l0,-305l125,0l125,0l0,45l0,44l-77,3l-78,3l-3,258l-2,257l-45,0l-45,0l0,-305z" fill="#ff0000" id="svg_9"/>
   <path d="m2990,-535l0,-305l45,0l45,0l0,305l0,305l-45,0l-45,0l0,-305z" fill="#ff0000" id="svg_10"/>
   <path d="m3460,-269l0,-40l48,-3l47,-3l3,-262l2,-263l45,0l45,0l2,263l3,262l48,3l47,3l0,40l0,39l-145,0l-145,0l0,-39z" fill="#ff0000" id="svg_11"/>
  </g>
 </g>
</svg>